<?xml version="1.0" encoding="UTF-8"?>
<svg id="Layer_1" xmlns="http://www.w3.org/2000/svg" version="1.1" viewBox="0 0 1100 220">
  <!-- Generator: Adobe Illustrator 29.8.1, SVG Export Plug-In . SVG Version: 2.1.1 Build 2)  -->
  <defs>
    <style>
      .st0 {
        letter-spacing: 0em;
      }

      .st0, .st1, .st2, .st3, .st4, .st5, .st6, .st7, .st8 {
        isolation: isolate;
      }

      .st0, .st1, .st2, .st4, .st5, .st6, .st7, .st8 {
        fill: #2d3383;
        font-family: CharmerTM-Regular, 'Charmer TM';
      }

      .st0, .st4, .st5, .st6, .st7, .st8 {
        font-size: 150px;
      }

      .st1 {
        letter-spacing: 0em;
      }

      .st1, .st2 {
        font-size: 45px;
      }

      .st4 {
        letter-spacing: 0em;
      }

      .st5 {
        letter-spacing: 0em;
      }

      .st6 {
        letter-spacing: 0em;
      }

      .st7 {
        letter-spacing: 0em;
      }
    </style>
  </defs>
  <g class="st3">
    <text class="st0" transform="translate(76.8 145.3)"><tspan x="0" y="0">L</tspan></text>
    <text class="st4" transform="translate(149 145.3)"><tspan x="0" y="0">o</tspan></text>
    <text class="st4" transform="translate(214.9 145.3)"><tspan x="0" y="0">g</tspan></text>
    <text class="st7" transform="translate(277.2 145.3)"><tspan x="0" y="0">a</tspan></text>
    <text class="st6" transform="translate(341 145.3)"><tspan x="0" y="0">n </tspan></text>
    <text class="st7" transform="translate(447.6 145.3)"><tspan x="0" y="0">S</tspan></text>
    <text class="st7" transform="translate(521.8 145.3)"><tspan x="0" y="0">a</tspan></text>
    <text class="st6" transform="translate(585.8 145.3)"><tspan x="0" y="0">i</tspan></text>
    <text class="st8" transform="translate(617.8 145.3)"><tspan x="0" y="0">n</tspan></text>
    <text class="st6" transform="translate(680.9 145.3)"><tspan x="0" y="0">t </tspan></text>
    <text class="st7" transform="translate(774.1 145.3)"><tspan x="0" y="0">J</tspan></text>
    <text class="st5" transform="translate(838.6 145.3)"><tspan x="0" y="0">o</tspan></text>
    <text class="st7" transform="translate(905.2 145.3)"><tspan x="0" y="0">h</tspan></text>
    <text class="st6" transform="translate(960.7 145.3)"><tspan x="0" y="0">n</tspan></text>
  </g>
  <g class="st3">
    <text class="st2" transform="translate(1021.1 182.7)"><tspan x="0" y="0">x</tspan></text>
    <text class="st1" transform="translate(1040.3 182.7)"><tspan x="0" y="0">o</tspan></text>
  </g>
</svg>